<svg width="231" height="38" viewBox="0 0 231 38" fill="none" xmlns="http://www.w3.org/2000/svg">
<path d="M231 0H0V37.4595H231V0Z" fill="white"/>
<path d="M10.0037 16.204C10.3844 16.7028 10.6929 17.0769 10.9292 17.3263C11.1655 17.5626 11.4411 17.753 11.7562 17.8973C12.0712 18.0417 12.4781 18.1271 12.977 18.1533C12.977 18.4815 12.9441 18.7637 12.8785 19C11.5658 19 10.5222 19.0394 9.74778 19.1181C9.22271 18.2518 8.42853 17.1426 7.36526 15.7905C6.30199 14.4384 5.33717 13.3686 4.4708 12.581V16.4993C4.4708 17.1557 4.56268 17.602 4.74646 17.8383C4.94336 18.0614 5.30435 18.1861 5.82942 18.2124C5.89506 18.3962 5.92787 18.6784 5.92787 19.0591C5.14026 19.0197 4.34609 19 3.54536 19C2.62648 19 1.83231 19.0197 1.16284 19.0591C1.16284 18.6784 1.19565 18.3962 1.26129 18.2124C1.78636 18.1861 2.14079 18.0614 2.32456 17.8383C2.52146 17.602 2.61991 17.1557 2.61991 16.4993V8.19004C2.61991 7.5337 2.52146 7.09395 2.32456 6.8708C2.14079 6.63452 1.78636 6.50325 1.26129 6.47699C1.19565 6.29322 1.16284 6.01099 1.16284 5.63031C1.88481 5.66969 2.67899 5.68938 3.54536 5.68938C4.34609 5.68938 5.14026 5.66969 5.92787 5.63031C5.92787 6.01099 5.89506 6.29322 5.82942 6.47699C5.30435 6.50325 4.94336 6.63452 4.74646 6.8708C4.56268 7.09395 4.4708 7.5337 4.4708 8.19004V12.01L8.19225 8.11128C8.67794 7.61246 8.92079 7.21866 8.92079 6.92987C8.92079 6.64108 8.7042 6.49012 8.27101 6.47699C8.20538 6.26696 8.17256 5.98474 8.17256 5.63031C8.60574 5.66969 9.28178 5.68938 10.2006 5.68938C11.0276 5.68938 11.7037 5.66969 12.2287 5.63031C12.2287 6.01099 12.1893 6.29322 12.1106 6.47699C11.638 6.50325 11.2048 6.63452 10.811 6.8708C10.4172 7.10708 9.91843 7.54683 9.31459 8.19004L6.10509 11.5965C7.05022 12.5022 8.34977 14.0381 10.0037 16.204ZM24.9434 18.1533C25.009 18.3502 25.0418 18.6456 25.0418 19.0394C24.5168 19.0131 23.8407 19 23.0137 19C22.1474 19 21.4517 19.0131 20.9266 19.0394C20.9266 18.6324 20.966 18.3371 21.0447 18.1533C21.3466 18.1139 21.5567 18.0614 21.6748 17.9958C21.8061 17.917 21.8717 17.8055 21.8717 17.6611C21.8717 17.5429 21.8061 17.3395 21.6748 17.0507L21.281 16.204C19.3907 16.204 17.9008 16.2368 16.8113 16.3024L16.5947 16.8144C16.4635 17.1163 16.3978 17.3526 16.3978 17.5232C16.3978 17.8908 16.6669 18.1008 17.2051 18.1533C17.2839 18.3896 17.3233 18.685 17.3233 19.0394C16.8244 19.0131 16.2797 19 15.689 19C15.177 19 14.711 19.0131 14.291 19.0394C14.291 18.7243 14.3304 18.429 14.4091 18.1533C14.6979 18.1008 14.9211 17.9827 15.0786 17.7989C15.2361 17.602 15.4461 17.2148 15.7087 16.6372L19.0954 9.13517C19.3448 9.08267 19.6073 9.05641 19.883 9.05641L23.506 16.5781C23.7948 17.1819 24.0376 17.5889 24.2345 17.7989C24.4446 18.0089 24.6808 18.1271 24.9434 18.1533ZM20.8872 15.3967L19.7058 12.9157C19.3645 12.22 19.1282 11.6687 18.9969 11.2617C18.8919 11.5899 18.7607 11.9181 18.6031 12.2463C18.4587 12.5613 18.3668 12.7582 18.3275 12.837L17.2051 15.3967H20.8872ZM35.5656 9.11548C35.5263 9.82433 35.5722 10.6776 35.7035 11.6752C35.4278 11.7934 35.1062 11.8524 34.7387 11.8524C34.7124 11.2224 34.5418 10.7564 34.2267 10.4544C33.9248 10.1525 33.4457 10.0016 32.7893 10.0016H31.923V16.7553C31.923 17.1622 31.9558 17.4642 32.0214 17.6611C32.1002 17.8448 32.2314 17.9761 32.4152 18.0549C32.6121 18.1336 32.9075 18.1861 33.3013 18.2124C33.3669 18.3699 33.3997 18.6456 33.3997 19.0394C32.4283 19.0131 31.6342 19 31.0172 19C30.2558 19 29.442 19.0131 28.5756 19.0394C28.5756 18.6456 28.6084 18.3699 28.6741 18.2124C29.0679 18.1861 29.3632 18.1336 29.5601 18.0549C29.7702 17.9761 29.9146 17.8383 29.9933 17.6414C30.0721 17.4445 30.1115 17.1491 30.1115 16.7553V10.0016H29.3042C28.7791 10.0016 28.3722 10.0738 28.0834 10.2182C27.8077 10.3494 27.6042 10.5398 27.473 10.7892C27.3417 11.0386 27.2301 11.393 27.1382 11.8524C26.7182 11.8524 26.4097 11.7934 26.2128 11.6752C26.4097 10.7826 26.5081 9.92935 26.5081 9.11548C27.1907 9.14174 28.6938 9.15487 31.0172 9.15487C33.38 9.15487 34.8962 9.14174 35.5656 9.11548ZM46.1441 16.204C46.4985 16.2696 46.7873 16.414 47.0104 16.6372C46.7742 17.2541 46.5969 18.0483 46.4788 19.0197L42.6786 19C40.7883 19 39.2656 19.0131 38.1105 19.0394C38.1105 18.6324 38.1433 18.3371 38.2089 18.1533C38.5371 18.1271 38.7799 18.0746 38.9374 17.9958C39.1081 17.917 39.2262 17.7726 39.2919 17.5626C39.3575 17.3526 39.3903 17.0375 39.3903 16.6175V11.439C39.3903 11.0583 39.3509 10.7695 39.2722 10.5726C39.2065 10.3757 39.0884 10.2378 38.9178 10.1591C38.7602 10.0803 38.5239 10.0278 38.2089 10.0016C38.1433 9.80464 38.1105 9.50929 38.1105 9.11548C39.0556 9.14174 40.086 9.15487 41.2018 9.15487C43.6172 9.15487 45.2318 9.14174 46.0456 9.11548C46.19 10.3494 46.3147 11.1633 46.4197 11.5571C46.1966 11.7015 45.9012 11.7737 45.5337 11.7737C45.4812 11.2224 45.2514 10.7892 44.8445 10.4741C44.4507 10.1591 43.7484 10.0016 42.7377 10.0016H41.2018V13.6246H42.1863C42.8821 13.6246 43.3612 13.5458 43.6237 13.3883C43.8994 13.2308 44.0438 12.942 44.0569 12.5219C44.3457 12.43 44.6476 12.3841 44.9627 12.3841C44.9364 12.7123 44.9233 13.2636 44.9233 14.0381C44.9233 14.8782 44.9364 15.4492 44.9627 15.7511C44.6082 15.7511 44.3194 15.7117 44.0963 15.633C44.0569 15.1998 43.8994 14.9044 43.6237 14.7469C43.3612 14.5894 42.8821 14.5106 42.1863 14.5106H41.2018V16.5781C41.2018 16.9982 41.2412 17.3198 41.32 17.5429C41.4119 17.753 41.5628 17.9039 41.7728 17.9958C41.996 18.0746 42.3242 18.1139 42.7573 18.1139H42.8755C43.6368 18.1139 44.221 18.0483 44.6279 17.917C45.048 17.7858 45.3565 17.5954 45.5534 17.346C45.7634 17.0835 45.9603 16.7028 46.1441 16.204ZM57.7784 16.6962C58.1328 17.2213 58.4938 17.5954 58.8613 17.8186C59.242 18.0286 59.708 18.1468 60.2594 18.173C60.2594 18.5537 60.2331 18.8294 60.1806 19C59.0648 19 58.1197 19.0459 57.3452 19.1378C57.2533 18.9803 57.0761 18.7046 56.8136 18.3108L55.9275 16.8735C55.4418 16.0596 54.7986 15.3967 53.9979 14.8847L53.3678 14.9044L52.7968 14.8847V16.6766C52.7968 17.1097 52.8296 17.4313 52.8952 17.6414C52.9608 17.8514 53.0659 17.9958 53.2102 18.0746C53.3678 18.1533 53.6041 18.1993 53.9191 18.2124C53.9716 18.3699 53.9979 18.6456 53.9979 19.0394C53.5122 19.0131 52.7968 19 51.8516 19C51.1559 19 50.4405 19.0131 49.7054 19.0394C49.7054 18.6718 49.7382 18.3962 49.8038 18.2124C50.132 18.1861 50.3749 18.1336 50.5324 18.0549C50.703 17.9761 50.8212 17.8383 50.8868 17.6414C50.9524 17.4445 50.9853 17.1491 50.9853 16.7553V11.4193C50.9853 10.8548 50.9065 10.4807 50.749 10.2969C50.5914 10.1131 50.2764 10.0081 49.8038 9.98185C49.7382 9.78495 49.7054 9.49616 49.7054 9.11548C50.2042 9.14174 50.9262 9.15487 51.8713 9.15487L53.289 9.13517C53.9716 9.10892 54.4901 9.09579 54.8445 9.09579C56.1047 9.09579 57.0564 9.33864 57.6996 9.82433C58.3428 10.31 58.6644 10.9336 58.6644 11.6949C58.6644 12.4563 58.4216 13.0864 57.9359 13.5852C57.4502 14.0709 56.7742 14.399 55.9078 14.5697C56.236 14.7666 56.5051 14.9963 56.7151 15.2589C56.9383 15.5083 57.2927 15.9874 57.7784 16.6962ZM53.545 13.9199C54.4901 13.9199 55.2646 13.7558 55.8684 13.4277C56.4723 13.0864 56.7742 12.5941 56.7742 11.9509C56.7742 10.612 55.8553 9.94247 54.0175 9.94247C53.5975 9.94247 53.1906 9.98185 52.7968 10.0606V13.8608C53.0724 13.9002 53.3218 13.9199 53.545 13.9199ZM62.6656 19.0394C62.6656 18.6324 62.6984 18.3371 62.764 18.1533C63.0922 18.1271 63.335 18.0746 63.4925 17.9958C63.6632 17.917 63.7813 17.7792 63.847 17.5823C63.9126 17.3854 63.9454 17.09 63.9454 16.6962V11.439C63.9454 11.0583 63.9126 10.7695 63.847 10.5726C63.7813 10.3757 63.6632 10.2378 63.4925 10.1591C63.335 10.0803 63.0922 10.0278 62.764 10.0016C62.6984 9.80464 62.6656 9.50929 62.6656 9.11548C63.5057 9.14174 64.2408 9.15487 64.8709 9.15487C65.3959 9.15487 66.1179 9.14174 67.0368 9.11548C67.0368 9.52242 67.0105 9.81777 66.958 10.0016C66.4855 10.0278 66.1639 10.1328 65.9932 10.3166C65.8357 10.5004 65.7569 10.8745 65.7569 11.439V16.6962C65.7569 17.2607 65.8357 17.6414 65.9932 17.8383C66.1639 18.0221 66.4855 18.1271 66.958 18.1533C67.0105 18.3502 67.0368 18.6456 67.0368 19.0394C66.1442 19.0131 65.4222 19 64.8709 19C64.2145 19 63.4794 19.0131 62.6656 19.0394ZM79.5799 9.15487C80.0787 9.15487 80.6301 9.14174 81.2339 9.11548C81.2339 9.50929 81.2077 9.80464 81.1551 10.0016C80.8795 10.0278 80.6695 10.1 80.5251 10.2182C80.3807 10.3363 80.2756 10.5398 80.21 10.8286C80.1575 11.1042 80.1313 11.5177 80.1313 12.069V19.0197C79.9606 19.0985 79.6915 19.1378 79.324 19.1378L72.2552 11.3208V16.0465C72.2552 16.6109 72.288 17.0375 72.3536 17.3263C72.4324 17.6151 72.5571 17.8186 72.7277 17.9367C72.8984 18.0549 73.1478 18.1271 73.476 18.1533C73.5416 18.3633 73.5744 18.6587 73.5744 19.0394C72.8656 19.0131 72.2814 19 71.822 19C71.205 19 70.6077 19.0131 70.0302 19.0394C70.0302 18.6587 70.063 18.3633 70.1286 18.1533C70.4568 18.1271 70.6996 18.0549 70.8572 17.9367C71.0278 17.8186 71.1459 17.6151 71.2116 17.3263C71.2903 17.0375 71.3297 16.6109 71.3297 16.0465V10.2969L71.31 10.2772C71.2181 10.1853 71.1 10.1263 70.9556 10.1C70.8112 10.0606 70.5355 10.0278 70.1286 10.0016C70.063 9.76526 70.0302 9.46991 70.0302 9.11548C70.5027 9.14174 70.9622 9.15487 71.4085 9.15487C71.8154 9.15487 72.2289 9.14174 72.649 9.11548L79.2058 16.46V12.069C79.2058 11.5177 79.1664 11.1042 79.0877 10.8286C79.022 10.5398 78.9039 10.3363 78.7332 10.2182C78.5626 10.1 78.3066 10.0278 77.9653 10.0016C77.9128 9.69963 77.8866 9.40427 77.8866 9.11548C78.5429 9.14174 79.1074 9.15487 79.5799 9.15487ZM94.263 18.1533C94.3286 18.3502 94.3614 18.6456 94.3614 19.0394C93.8364 19.0131 93.1603 19 92.3333 19C91.467 19 90.7713 19.0131 90.2462 19.0394C90.2462 18.6324 90.2856 18.3371 90.3643 18.1533C90.6662 18.1139 90.8763 18.0614 90.9944 17.9958C91.1257 17.917 91.1913 17.8055 91.1913 17.6611C91.1913 17.5429 91.1257 17.3395 90.9944 17.0507L90.6006 16.204C88.7103 16.204 87.2205 16.2368 86.1309 16.3024L85.9143 16.8144C85.7831 17.1163 85.7174 17.3526 85.7174 17.5232C85.7174 17.8908 85.9865 18.1008 86.5247 18.1533C86.6035 18.3896 86.6429 18.685 86.6429 19.0394C86.1441 19.0131 85.5993 19 85.0086 19C84.4966 19 84.0306 19.0131 83.6106 19.0394C83.6106 18.7243 83.65 18.429 83.7287 18.1533C84.0175 18.1008 84.2407 17.9827 84.3982 17.7989C84.5557 17.602 84.7657 17.2148 85.0283 16.6372L88.415 9.13517C88.6644 9.08267 88.9269 9.05641 89.2026 9.05641L92.8256 16.5781C93.1144 17.1819 93.3572 17.5889 93.5541 17.7989C93.7642 18.0089 94.0005 18.1271 94.263 18.1533ZM90.2068 15.3967L89.0254 12.9157C88.6841 12.22 88.4478 11.6687 88.3165 11.2617C88.2115 11.5899 88.0803 11.9181 87.9227 12.2463C87.7783 12.5613 87.6865 12.7582 87.6471 12.837L86.5247 15.3967H90.2068ZM109.482 16.2434C109.784 16.7553 110.04 17.136 110.25 17.3854C110.46 17.6348 110.703 17.8186 110.979 17.9367C111.268 18.0549 111.655 18.1271 112.141 18.1533C112.141 18.534 112.114 18.8162 112.062 19C110.723 19 109.692 19.0591 108.97 19.1772C108.472 18.3765 108.032 17.602 107.651 16.8538L107.415 16.4206C107.008 15.6855 106.634 15.0751 106.293 14.5894C105.964 14.0906 105.525 13.5458 104.973 12.9551L104.363 12.9748C104.166 12.9748 103.91 12.9617 103.595 12.9354V16.4993C103.595 17.1557 103.68 17.602 103.851 17.8383C104.035 18.0614 104.383 18.1861 104.895 18.2124C104.96 18.4093 104.993 18.6915 104.993 19.0591C104.429 19.0197 103.648 19 102.65 19C101.665 19 100.878 19.0197 100.287 19.0591C100.287 18.7046 100.32 18.4224 100.386 18.2124C100.924 18.1861 101.285 18.0614 101.468 17.8383C101.652 17.602 101.744 17.1557 101.744 16.4993V8.19004C101.744 7.5337 101.646 7.08739 101.449 6.85111C101.265 6.6017 100.911 6.47699 100.386 6.47699C100.32 6.26696 100.287 5.9913 100.287 5.65C100.812 5.67626 101.6 5.68938 102.65 5.68938C103.372 5.68938 103.917 5.68282 104.284 5.66969L105.938 5.65C107.356 5.65 108.426 5.95848 109.148 6.57544C109.87 7.17928 110.231 7.97345 110.231 8.95796C110.231 9.82433 109.935 10.5726 109.345 11.2027C108.767 11.8328 107.96 12.2791 106.923 12.5416C107.382 13.0273 107.769 13.5064 108.084 13.979C108.399 14.4384 108.865 15.1932 109.482 16.2434ZM103.595 12.0297C103.91 12.069 104.199 12.0887 104.461 12.0887C105.603 12.0887 106.529 11.8459 107.238 11.3602C107.947 10.8614 108.301 10.1263 108.301 9.15487C108.301 8.32788 108.038 7.68466 107.513 7.22522C107.001 6.75266 106.181 6.51637 105.052 6.51637C104.58 6.51637 104.094 6.56888 103.595 6.6739V12.0297ZM124.183 18.1533C124.249 18.3502 124.281 18.6456 124.281 19.0394C123.756 19.0131 123.08 19 122.253 19C121.387 19 120.691 19.0131 120.166 19.0394C120.166 18.6324 120.206 18.3371 120.284 18.1533C120.586 18.1139 120.796 18.0614 120.914 17.9958C121.046 17.917 121.111 17.8055 121.111 17.6611C121.111 17.5429 121.046 17.3395 120.914 17.0507L120.521 16.204C118.63 16.204 117.14 16.2368 116.051 16.3024L115.834 16.8144C115.703 17.1163 115.637 17.3526 115.637 17.5232C115.637 17.8908 115.907 18.1008 116.445 18.1533C116.524 18.3896 116.563 18.685 116.563 19.0394C116.064 19.0131 115.519 19 114.929 19C114.417 19 113.951 19.0131 113.531 19.0394C113.531 18.7243 113.57 18.429 113.649 18.1533C113.938 18.1008 114.161 17.9827 114.318 17.7989C114.476 17.602 114.686 17.2148 114.948 16.6372L118.335 9.13517C118.584 9.08267 118.847 9.05641 119.123 9.05641L122.746 16.5781C123.034 17.1819 123.277 17.5889 123.474 17.7989C123.684 18.0089 123.92 18.1271 124.183 18.1533ZM120.127 15.3967L118.945 12.9157C118.604 12.22 118.368 11.6687 118.237 11.2617C118.132 11.5899 118 11.9181 117.843 12.2463C117.698 12.5613 117.606 12.7582 117.567 12.837L116.445 15.3967H120.127ZM140.875 18.2124C140.941 18.4224 140.974 18.6981 140.974 19.0394C140.265 19.0131 139.53 19 138.768 19C138.086 19 137.364 19.0131 136.602 19.0394C136.602 18.7768 136.635 18.5012 136.701 18.2124C137.134 18.173 137.429 18.0942 137.587 17.9761C137.745 17.8448 137.823 17.602 137.823 17.2476C137.823 17.1557 137.797 16.8735 137.745 16.4009L137.134 11.7146L133.629 18.744C133.419 18.8228 133.163 18.8622 132.861 18.8622L129.219 11.754L128.667 15.9086C128.628 16.2631 128.608 16.565 128.608 16.8144C128.608 17.3263 128.694 17.6808 128.864 17.8777C129.048 18.0746 129.356 18.1861 129.79 18.2124C129.855 18.4224 129.888 18.6981 129.888 19.0394C129.179 19.0131 128.556 19 128.018 19C127.44 19 126.849 19.0131 126.245 19.0394C126.245 18.6981 126.278 18.4224 126.344 18.2124C126.659 18.1861 126.902 18.1074 127.072 17.9761C127.256 17.8448 127.394 17.6217 127.486 17.3066C127.591 16.9785 127.676 16.4993 127.742 15.8693L128.293 11.5374C128.306 11.4455 128.313 11.3142 128.313 11.1436C128.313 10.6973 128.221 10.3954 128.037 10.2378C127.867 10.0803 127.565 10.0016 127.131 10.0016C127.066 9.76526 127.033 9.46991 127.033 9.11548C127.532 9.14174 128.011 9.15487 128.47 9.15487C128.838 9.15487 129.311 9.14174 129.888 9.11548L133.728 16.4993L137.37 9.11548C137.948 9.14174 138.44 9.15487 138.847 9.15487C139.162 9.15487 139.635 9.14174 140.265 9.11548C140.265 9.49616 140.232 9.79152 140.166 10.0016C139.773 10.0016 139.477 10.0935 139.28 10.2772C139.083 10.4479 138.985 10.7432 138.985 11.1633C138.985 11.3339 138.992 11.4718 139.005 11.5768L139.615 16.2237C139.694 16.7881 139.773 17.2016 139.851 17.4642C139.943 17.7267 140.061 17.9105 140.206 18.0155C140.363 18.1205 140.586 18.1861 140.875 18.2124ZM153.603 18.1533C153.669 18.3502 153.701 18.6456 153.701 19.0394C153.176 19.0131 152.5 19 151.673 19C150.807 19 150.111 19.0131 149.586 19.0394C149.586 18.6324 149.626 18.3371 149.704 18.1533C150.006 18.1139 150.216 18.0614 150.334 17.9958C150.466 17.917 150.531 17.8055 150.531 17.6611C150.531 17.5429 150.466 17.3395 150.334 17.0507L149.941 16.204C148.05 16.204 146.56 16.2368 145.471 16.3024L145.254 16.8144C145.123 17.1163 145.057 17.3526 145.057 17.5232C145.057 17.8908 145.327 18.1008 145.865 18.1533C145.943 18.3896 145.983 18.685 145.983 19.0394C145.484 19.0131 144.939 19 144.349 19C143.837 19 143.371 19.0131 142.951 19.0394C142.951 18.7243 142.99 18.429 143.069 18.1533C143.358 18.1008 143.581 17.9827 143.738 17.7989C143.896 17.602 144.106 17.2148 144.368 16.6372L147.755 9.13517C148.004 9.08267 148.267 9.05641 148.543 9.05641L152.166 16.5781C152.454 17.1819 152.697 17.5889 152.894 17.7989C153.104 18.0089 153.34 18.1271 153.603 18.1533ZM149.547 15.3967L148.365 12.9157C148.024 12.22 147.788 11.6687 147.657 11.2617C147.552 11.5899 147.42 11.9181 147.263 12.2463C147.118 12.5613 147.026 12.7582 146.987 12.837L145.865 15.3967H149.547ZM163.994 16.204C164.401 16.2434 164.729 16.3615 164.979 16.5584C164.887 16.8735 164.808 17.2673 164.743 17.7398C164.69 18.2124 164.657 18.6456 164.644 19.0394C163.541 19.0131 162.038 19 160.135 19C158.56 19 157.273 19.0131 156.276 19.0394C156.171 18.8294 156.118 18.5734 156.118 18.2715C156.118 18.2715 156.965 17.1426 158.658 14.8847C160.247 12.8107 161.448 11.183 162.262 10.0016H160.037C159.512 10.0016 159.098 10.0541 158.796 10.1591C158.494 10.2641 158.251 10.461 158.068 10.7498C157.884 11.0255 157.726 11.439 157.595 11.9903C157.083 11.9903 156.729 11.9312 156.532 11.8131C156.637 11.4455 156.716 11.0123 156.768 10.5135C156.834 10.0147 156.866 9.54867 156.866 9.11548C157.838 9.14174 159.242 9.15487 161.08 9.15487C162.524 9.15487 163.653 9.14174 164.467 9.11548C164.598 9.37802 164.664 9.63399 164.664 9.8834C163.981 10.9073 163.299 11.8787 162.616 12.7976C161.933 13.7165 161.047 14.8847 159.958 16.3024C159.354 17.1163 158.895 17.7267 158.58 18.1336H160.962C161.684 18.1336 162.229 18.0877 162.596 17.9958C162.977 17.8908 163.272 17.707 163.482 17.4445C163.692 17.1688 163.863 16.7553 163.994 16.204ZM178.158 18.1533C178.224 18.3502 178.257 18.6456 178.257 19.0394C177.731 19.0131 177.055 19 176.228 19C175.362 19 174.666 19.0131 174.141 19.0394C174.141 18.6324 174.181 18.3371 174.259 18.1533C174.561 18.1139 174.771 18.0614 174.889 17.9958C175.021 17.917 175.086 17.8055 175.086 17.6611C175.086 17.5429 175.021 17.3395 174.889 17.0507L174.496 16.204C172.605 16.204 171.116 16.2368 170.026 16.3024L169.809 16.8144C169.678 17.1163 169.613 17.3526 169.613 17.5232C169.613 17.8908 169.882 18.1008 170.42 18.1533C170.499 18.3896 170.538 18.685 170.538 19.0394C170.039 19.0131 169.494 19 168.904 19C168.392 19 167.926 19.0131 167.506 19.0394C167.506 18.7243 167.545 18.429 167.624 18.1533C167.913 18.1008 168.136 17.9827 168.293 17.7989C168.451 17.602 168.661 17.2148 168.923 16.6372L172.31 9.13517C172.559 9.08267 172.822 9.05641 173.098 9.05641L176.721 16.5781C177.009 17.1819 177.252 17.5889 177.449 17.7989C177.659 18.0089 177.896 18.1271 178.158 18.1533ZM174.102 15.3967L172.92 12.9157C172.579 12.22 172.343 11.6687 172.212 11.2617C172.107 11.5899 171.975 11.9181 171.818 12.2463C171.673 12.5613 171.582 12.7582 171.542 12.837L170.42 15.3967H174.102ZM190.184 9.15487C190.683 9.15487 191.234 9.14174 191.838 9.11548C191.838 9.50929 191.811 9.80464 191.759 10.0016C191.483 10.0278 191.273 10.1 191.129 10.2182C190.984 10.3363 190.879 10.5398 190.814 10.8286C190.761 11.1042 190.735 11.5177 190.735 12.069V19.0197C190.564 19.0985 190.295 19.1378 189.928 19.1378L182.859 11.3208V16.0465C182.859 16.6109 182.892 17.0375 182.957 17.3263C183.036 17.6151 183.161 17.8186 183.332 17.9367C183.502 18.0549 183.752 18.1271 184.08 18.1533C184.145 18.3633 184.178 18.6587 184.178 19.0394C183.469 19.0131 182.885 19 182.426 19C181.809 19 181.212 19.0131 180.634 19.0394C180.634 18.6587 180.667 18.3633 180.732 18.1533C181.061 18.1271 181.303 18.0549 181.461 17.9367C181.632 17.8186 181.75 17.6151 181.815 17.3263C181.894 17.0375 181.934 16.6109 181.934 16.0465V10.2969L181.914 10.2772C181.822 10.1853 181.704 10.1263 181.559 10.1C181.415 10.0606 181.139 10.0278 180.732 10.0016C180.667 9.76526 180.634 9.46991 180.634 9.11548C181.107 9.14174 181.566 9.15487 182.012 9.15487C182.419 9.15487 182.833 9.14174 183.253 9.11548L189.81 16.46V12.069C189.81 11.5177 189.77 11.1042 189.691 10.8286C189.626 10.5398 189.508 10.3363 189.337 10.2182C189.166 10.1 188.91 10.0278 188.569 10.0016C188.517 9.69963 188.49 9.40427 188.49 9.11548C189.147 9.14174 189.711 9.15487 190.184 9.15487ZM200.141 19.1772C199.012 19.1772 198.015 18.9672 197.148 18.5471C196.282 18.1271 195.606 17.5364 195.12 16.775C194.648 16.0136 194.411 15.1276 194.411 14.1168C194.411 13.1192 194.648 12.2331 195.12 11.4586C195.606 10.6842 196.282 10.0869 197.148 9.66681C198.028 9.23363 199.039 9.01703 200.181 9.01703C201.309 9.01703 202.307 9.22706 203.173 9.64712C204.04 10.0672 204.709 10.6645 205.182 11.439C205.668 12.2003 205.91 13.0798 205.91 14.0774C205.91 15.0882 205.668 15.9808 205.182 16.7553C204.709 17.5167 204.033 18.1139 203.154 18.5471C202.287 18.9672 201.283 19.1772 200.141 19.1772ZM200.417 18.2715C201.48 18.2715 202.32 17.917 202.937 17.2082C203.567 16.4993 203.882 15.5542 203.882 14.3728C203.882 13.5196 203.712 12.7582 203.37 12.0887C203.029 11.4061 202.55 10.8745 201.933 10.4938C201.329 10.1131 200.647 9.92278 199.885 9.92278C198.822 9.92278 197.982 10.2838 197.365 11.0058C196.748 11.7146 196.439 12.6532 196.439 13.8215C196.439 14.701 196.61 15.482 196.951 16.1646C197.293 16.8341 197.765 17.3526 198.369 17.7201C198.973 18.0877 199.655 18.2715 200.417 18.2715ZM216.95 9.15487C217.462 9.15487 218.047 9.14174 218.703 9.11548C218.703 9.46991 218.67 9.75214 218.604 9.96216C218.079 10.0541 217.6 10.5988 217.167 11.5965C216.13 13.8805 214.922 16.3549 213.544 19.0197C213.347 19.0853 213.091 19.1181 212.776 19.1181C211.555 16.4665 210.361 14.0118 209.192 11.754C208.904 11.1764 208.694 10.7892 208.562 10.5923C208.444 10.3822 208.32 10.2313 208.188 10.1394C208.07 10.0475 207.906 9.98842 207.696 9.96216C207.63 9.77839 207.598 9.49616 207.598 9.11548C208.228 9.14174 208.95 9.15487 209.764 9.15487C210.275 9.15487 211.004 9.14174 211.949 9.11548C211.949 9.44365 211.916 9.72588 211.851 9.96216C211.509 9.98842 211.253 10.0409 211.083 10.1197C210.925 10.1985 210.846 10.3297 210.846 10.5135C210.846 10.7498 210.971 11.0911 211.221 11.5374C212.139 13.2439 212.96 14.9241 213.682 16.5781C214.758 14.4778 215.566 12.8238 216.104 11.6162C216.261 11.2617 216.34 10.9598 216.34 10.7104C216.34 10.2641 216.064 10.0147 215.513 9.96216C215.447 9.77839 215.415 9.49616 215.415 9.11548C216.071 9.14174 216.583 9.15487 216.95 9.15487ZM229.96 18.1533C230.026 18.3502 230.059 18.6456 230.059 19.0394C229.534 19.0131 228.858 19 228.031 19C227.164 19 226.469 19.0131 225.944 19.0394C225.944 18.6324 225.983 18.3371 226.062 18.1533C226.364 18.1139 226.574 18.0614 226.692 17.9958C226.823 17.917 226.889 17.8055 226.889 17.6611C226.889 17.5429 226.823 17.3395 226.692 17.0507L226.298 16.204C224.408 16.204 222.918 16.2368 221.828 16.3024L221.612 16.8144C221.48 17.1163 221.415 17.3526 221.415 17.5232C221.415 17.8908 221.684 18.1008 222.222 18.1533C222.301 18.3896 222.34 18.685 222.34 19.0394C221.841 19.0131 221.297 19 220.706 19C220.194 19 219.728 19.0131 219.308 19.0394C219.308 18.7243 219.347 18.429 219.426 18.1533C219.715 18.1008 219.938 17.9827 220.096 17.7989C220.253 17.602 220.463 17.2148 220.726 16.6372L224.112 9.13517C224.362 9.08267 224.624 9.05641 224.9 9.05641L228.523 16.5781C228.812 17.1819 229.055 17.5889 229.251 17.7989C229.462 18.0089 229.698 18.1271 229.96 18.1533ZM225.904 15.3967L224.723 12.9157C224.381 12.22 224.145 11.6687 224.014 11.2617C223.909 11.5899 223.778 11.9181 223.62 12.2463C223.476 12.5613 223.384 12.7582 223.344 12.837L222.222 15.3967H225.904Z" fill="black"/>
<path d="M55.4116 33.0317C55.4116 32.8396 55.4277 32.7051 55.4597 32.6283C55.6198 32.6154 55.7382 32.5898 55.8151 32.5514C55.8983 32.513 55.9559 32.4458 55.9879 32.3497C56.02 32.2537 56.036 32.1096 56.036 31.9175V29.2953C56.036 29.1096 56.02 28.9688 55.9879 28.8727C55.9559 28.7767 55.8983 28.7094 55.8151 28.671C55.7382 28.6326 55.6198 28.607 55.4597 28.5942C55.4277 28.5045 55.4116 28.37 55.4116 28.1907C55.8215 28.2036 56.561 28.21 57.6304 28.21H58.6101C59.6282 28.21 60.3678 28.2036 60.8289 28.1907C60.8289 28.3572 60.8129 28.4917 60.7808 28.5942C60.5503 28.607 60.3934 28.6582 60.3102 28.7478C60.2334 28.8375 60.1949 29.02 60.1949 29.2953V31.9175C60.1949 32.1928 60.2334 32.3785 60.3102 32.4746C60.3934 32.5642 60.5503 32.6154 60.7808 32.6283C60.8129 32.7051 60.8289 32.8396 60.8289 33.0317C60.3806 33.0189 60.0284 33.0125 59.7723 33.0125C59.4457 33.0125 59.084 33.0189 58.6869 33.0317C58.6869 32.8396 58.703 32.7051 58.735 32.6283C58.8951 32.6154 59.0135 32.5898 59.0904 32.5514C59.1736 32.513 59.2312 32.4458 59.2632 32.3497C59.2953 32.2537 59.3113 32.1096 59.3113 31.9175V29.3241C59.3113 29.132 59.2953 28.988 59.2632 28.8919C59.2376 28.7959 59.1832 28.7286 59.1 28.6902C59.0359 28.6646 58.9367 28.6486 58.8022 28.6422C58.6677 28.6294 58.4404 28.623 58.1203 28.623C57.8001 28.623 57.5696 28.6294 57.4287 28.6422C57.2942 28.6486 57.195 28.6646 57.1309 28.6902C57.0541 28.7222 56.9997 28.7895 56.9677 28.8919C56.9356 28.9944 56.9196 29.1384 56.9196 29.3241V31.9175C56.9196 32.1928 56.958 32.3785 57.0349 32.4746C57.1181 32.5642 57.275 32.6154 57.5055 32.6283C57.5311 32.7115 57.544 32.846 57.544 33.0317C57.1085 33.0189 56.7563 33.0125 56.4874 33.0125C56.1672 33.0125 55.8087 33.0189 55.4116 33.0317ZM66.2059 31.6485C66.3788 31.6806 66.5197 31.751 66.6285 31.8599C66.5133 32.1608 66.4268 32.5482 66.3692 33.0221L64.5155 33.0125C63.5934 33.0125 62.8506 33.0189 62.2871 33.0317C62.2871 32.8332 62.3031 32.6891 62.3351 32.5994C62.4952 32.5866 62.6137 32.561 62.6905 32.5226C62.7737 32.4842 62.8314 32.4137 62.8634 32.3113C62.8954 32.2088 62.9114 32.0552 62.9114 31.8502V29.3241C62.9114 29.1384 62.8922 28.9976 62.8538 28.9015C62.8218 28.8055 62.7641 28.7382 62.6809 28.6998C62.6041 28.6614 62.4888 28.6358 62.3351 28.623C62.3031 28.5269 62.2871 28.3828 62.2871 28.1907C62.7481 28.2036 63.2508 28.21 63.7951 28.21C64.9733 28.21 65.7609 28.2036 66.1579 28.1907C66.2283 28.7927 66.2892 29.1897 66.3404 29.3818C66.2315 29.4522 66.0875 29.4874 65.9082 29.4874C65.8826 29.2185 65.7705 29.0072 65.572 28.8535C65.3799 28.6998 65.0373 28.623 64.5443 28.623H63.7951V30.3903H64.2753C64.6147 30.3903 64.8484 30.3519 64.9765 30.275C65.111 30.1982 65.1814 30.0573 65.1878 29.8524C65.3287 29.8076 65.4759 29.7852 65.6296 29.7852C65.6168 29.9453 65.6104 30.2142 65.6104 30.592C65.6104 31.0018 65.6168 31.2804 65.6296 31.4276C65.4567 31.4276 65.3159 31.4084 65.207 31.37C65.1878 31.1587 65.111 31.0146 64.9765 30.9378C64.8484 30.8609 64.6147 30.8225 64.2753 30.8225H63.7951V31.831C63.7951 32.0359 63.8143 32.1928 63.8527 32.3017C63.8975 32.4041 63.9712 32.4778 64.0736 32.5226C64.1825 32.561 64.3426 32.5802 64.5539 32.5802H64.6115C64.9829 32.5802 65.2678 32.5482 65.4663 32.4842C65.6713 32.4201 65.8217 32.3273 65.9178 32.2056C66.0202 32.0776 66.1163 31.8919 66.2059 31.6485ZM70.1043 30.8994C70.4437 30.8994 70.719 30.8161 70.9303 30.6496C71.148 30.4831 71.2569 30.2078 71.2569 29.8236C71.2569 29.4586 71.1416 29.1705 70.9111 28.9591C70.687 28.7414 70.3412 28.6326 69.8738 28.6326C69.7521 28.6326 69.6112 28.6518 69.4511 28.6902V31.783C69.4511 32.084 69.5088 32.2921 69.624 32.4073C69.7393 32.5226 69.9378 32.5866 70.2195 32.5994C70.2516 32.6955 70.2676 32.8396 70.2676 33.0317C69.909 33.0189 69.5376 33.0125 69.1534 33.0125C68.6667 33.0125 68.2633 33.0189 67.9432 33.0317C67.9432 32.8332 67.9592 32.6891 67.9912 32.5994C68.2153 32.5866 68.3658 32.5354 68.4426 32.4458C68.5259 32.3497 68.5675 32.164 68.5675 31.8887V29.3241C68.5675 29.1384 68.5515 28.9976 68.5195 28.9015C68.4874 28.8055 68.4298 28.7382 68.3466 28.6998C68.2697 28.6614 68.1513 28.6358 67.9912 28.623C67.9592 28.5269 67.9432 28.3828 67.9432 28.1907C68.5451 28.2036 68.9389 28.21 69.1246 28.21L70.2772 28.1907C70.9367 28.1907 71.4202 28.3284 71.7275 28.6038C72.0349 28.8791 72.1886 29.2313 72.1886 29.6603C72.1886 29.9677 72.1149 30.2494 71.9676 30.5055C71.8204 30.7617 71.5995 30.9666 71.3049 31.1203C71.0168 31.2739 70.6678 31.3508 70.258 31.3508C70.0082 31.3508 69.8129 31.3284 69.6721 31.2836C69.6592 31.1939 69.6528 31.1267 69.6528 31.0818C69.6528 30.9986 69.6624 30.9282 69.6817 30.8705C69.7777 30.8897 69.9186 30.8994 70.1043 30.8994ZM77.9539 28.5173C77.8898 28.7606 77.8578 29.1256 77.8578 29.6123C77.7362 29.6699 77.5761 29.6987 77.3776 29.6987C77.3584 29.2825 77.2431 28.9912 77.0318 28.8247C76.8269 28.6518 76.5291 28.5653 76.1385 28.5653C75.4982 28.5653 75.018 28.7414 74.6978 29.0936C74.3776 29.4458 74.2175 29.878 74.2175 30.3903C74.2175 30.7937 74.3008 31.1587 74.4673 31.4853C74.6402 31.8054 74.8835 32.0584 75.1972 32.2441C75.5174 32.4297 75.8952 32.5226 76.3306 32.5226C76.5932 32.5226 76.8621 32.4938 77.1375 32.4362C77.4128 32.3721 77.6657 32.2825 77.8963 32.1672C77.9347 32.1992 77.9699 32.2473 78.0019 32.3113C78.0339 32.3689 78.0531 32.4233 78.0595 32.4746C77.7009 32.6795 77.3616 32.8332 77.0414 32.9356C76.7212 33.0317 76.3595 33.0797 75.956 33.0797C75.431 33.0797 74.9635 32.974 74.5537 32.7627C74.1439 32.5514 73.8237 32.2569 73.5932 31.8791C73.3627 31.5013 73.2474 31.069 73.2474 30.5824C73.2474 30.0637 73.3787 29.6219 73.6412 29.2569C73.9038 28.8855 74.2496 28.607 74.6786 28.4213C75.114 28.2356 75.5814 28.1427 76.0809 28.1427C76.4203 28.1427 76.7372 28.1747 77.0318 28.2388C77.3264 28.2964 77.6337 28.3892 77.9539 28.5173ZM81.8674 33.0989C81.3167 33.0989 80.8301 32.9964 80.4074 32.7915C79.9848 32.5866 79.655 32.2985 79.4181 31.9271C79.1876 31.5557 79.0723 31.1235 79.0723 30.6304C79.0723 30.1438 79.1876 29.7115 79.4181 29.3337C79.655 28.9559 79.9848 28.6646 80.4074 28.4597C80.8365 28.2484 81.3295 28.1427 81.8866 28.1427C82.4373 28.1427 82.9239 28.2452 83.3466 28.4501C83.7692 28.655 84.0957 28.9463 84.3263 29.3241C84.5632 29.6955 84.6817 30.1246 84.6817 30.6112C84.6817 31.1043 84.5632 31.5397 84.3263 31.9175C84.0957 32.2889 83.766 32.5802 83.337 32.7915C82.9143 32.9964 82.4245 33.0989 81.8674 33.0989ZM82.0019 32.6571C82.5205 32.6571 82.9303 32.4842 83.2313 32.1384C83.5387 31.7926 83.6923 31.3316 83.6923 30.7553C83.6923 30.3391 83.6091 29.9677 83.4426 29.6411C83.2761 29.3081 83.0424 29.0488 82.7414 28.8631C82.4469 28.6774 82.1139 28.5846 81.7425 28.5846C81.2239 28.5846 80.814 28.7606 80.5131 29.1128C80.2121 29.4586 80.0617 29.9164 80.0617 30.4863C80.0617 30.9154 80.1449 31.2964 80.3114 31.6293C80.4779 31.9559 80.7084 32.2088 81.0029 32.3881C81.2975 32.5674 81.6305 32.6571 82.0019 32.6571ZM90.8225 31.9175C90.8225 32.1928 90.8609 32.3785 90.9377 32.4746C91.021 32.5642 91.1747 32.6154 91.3988 32.6283C91.4308 32.7051 91.4468 32.8396 91.4468 33.0317C91.0114 33.0189 90.6592 33.0125 90.3902 33.0125C90.0701 33.0125 89.7115 33.0189 89.3145 33.0317C89.3145 32.8396 89.3305 32.7051 89.3625 32.6283C89.5866 32.6154 89.7371 32.5642 89.8139 32.4746C89.8972 32.3785 89.9388 32.1928 89.9388 31.9175V30.7457C88.7094 30.7457 87.8801 30.7617 87.4511 30.7937V31.9175C87.4511 32.1928 87.4895 32.3785 87.5664 32.4746C87.6496 32.5642 87.8065 32.6154 88.037 32.6283C88.0626 32.7115 88.0754 32.846 88.0754 33.0317C87.64 33.0189 87.2878 33.0125 87.0189 33.0125C86.6987 33.0125 86.3401 33.0189 85.9431 33.0317C85.9431 32.8396 85.9591 32.7051 85.9912 32.6283C86.1512 32.6154 86.2697 32.5898 86.3465 32.5514C86.4298 32.513 86.4874 32.4458 86.5194 32.3497C86.5514 32.2537 86.5675 32.1096 86.5675 31.9175V29.2953C86.5675 29.1096 86.5514 28.9688 86.5194 28.8727C86.4874 28.7767 86.4298 28.7094 86.3465 28.671C86.2697 28.6326 86.1512 28.607 85.9912 28.5942C85.9591 28.5045 85.9431 28.37 85.9431 28.1907C86.3529 28.2036 86.7115 28.21 87.0189 28.21C87.275 28.21 87.6272 28.2036 88.0754 28.1907C88.0754 28.3764 88.0626 28.5109 88.037 28.5942C87.8065 28.607 87.6496 28.6582 87.5664 28.7478C87.4895 28.8375 87.4511 29.02 87.4511 29.2953V30.3231H89.9388V29.2953C89.9388 29.1096 89.9196 28.9688 89.8812 28.8727C89.8492 28.7767 89.7915 28.7094 89.7083 28.671C89.6314 28.6326 89.513 28.607 89.3529 28.5942C89.3273 28.4981 89.3145 28.3636 89.3145 28.1907C89.7243 28.2036 90.0797 28.21 90.3806 28.21C90.6432 28.21 90.9986 28.2036 91.4468 28.1907C91.4468 28.3572 91.4308 28.4917 91.3988 28.5942C91.1682 28.607 91.0146 28.6582 90.9377 28.7478C90.8609 28.8375 90.8225 29.02 90.8225 29.2953V31.9175ZM97.8015 32.5994C97.8336 32.6955 97.8496 32.8396 97.8496 33.0317C97.5934 33.0189 97.2637 33.0125 96.8603 33.0125C96.4376 33.0125 96.0983 33.0189 95.8421 33.0317C95.8421 32.8332 95.8613 32.6891 95.8998 32.5994C96.047 32.5802 96.1495 32.5546 96.2071 32.5226C96.2711 32.4842 96.3032 32.4297 96.3032 32.3593C96.3032 32.3017 96.2711 32.2024 96.2071 32.0616L96.015 31.6485C95.0929 31.6485 94.3662 31.6646 93.8347 31.6966L93.729 31.9463C93.665 32.0936 93.633 32.2088 93.633 32.2921C93.633 32.4714 93.7642 32.5738 94.0268 32.5994C94.0652 32.7147 94.0844 32.8588 94.0844 33.0317C93.8411 33.0189 93.5753 33.0125 93.2872 33.0125C93.0375 33.0125 92.8101 33.0189 92.6052 33.0317C92.6052 32.878 92.6245 32.7339 92.6629 32.5994C92.8037 32.5738 92.9126 32.5162 92.9894 32.4265C93.0663 32.3305 93.1687 32.1416 93.2968 31.8599L94.9489 28.2004C95.0705 28.1747 95.1986 28.1619 95.3331 28.1619L97.1004 31.831C97.2413 32.1256 97.3597 32.3241 97.4558 32.4265C97.5582 32.529 97.6735 32.5866 97.8015 32.5994ZM95.8229 31.2547L95.2466 30.0445C95.0801 29.7051 94.9649 29.4362 94.9008 29.2377C94.8496 29.3978 94.7856 29.5579 94.7087 29.7179C94.6383 29.8716 94.5935 29.9677 94.5743 30.0061L94.0268 31.2547H95.8229ZM99.2974 33.0797C99.1758 33.0797 99.0605 33.0605 98.9517 33.0221C98.8428 32.99 98.766 32.9516 98.7211 32.9068C98.6955 32.8236 98.6827 32.7147 98.6827 32.5802C98.6827 32.3689 98.7083 32.1928 98.7596 32.052C98.8876 32.084 99.0221 32.1 99.163 32.1C99.4319 32.1 99.64 31.9975 99.7873 31.7926C99.9346 31.5813 100.04 31.2868 100.104 30.909C100.168 30.5248 100.22 29.9997 100.258 29.3337L100.268 29.1032C100.268 28.9752 100.252 28.8823 100.22 28.8247C100.188 28.7606 100.127 28.7158 100.037 28.6902C99.9538 28.6582 99.8161 28.6358 99.624 28.623C99.5984 28.5205 99.5856 28.3764 99.5856 28.1907C100.072 28.2036 100.777 28.21 101.699 28.21C102.55 28.21 103.2 28.2036 103.649 28.1907C103.649 28.3892 103.636 28.5333 103.61 28.623C103.38 28.6358 103.223 28.687 103.14 28.7767C103.063 28.8663 103.024 29.0488 103.024 29.3241V31.8887C103.024 32.164 103.063 32.3497 103.14 32.4458C103.223 32.5354 103.38 32.5866 103.61 32.5994C103.636 32.6955 103.649 32.8396 103.649 33.0317C103.213 33.0189 102.864 33.0125 102.602 33.0125C102.275 33.0125 101.913 33.0189 101.516 33.0317C101.516 32.8332 101.532 32.6891 101.564 32.5994C101.724 32.5866 101.843 32.561 101.92 32.5226C102.003 32.4842 102.061 32.4169 102.093 32.3209C102.125 32.2248 102.141 32.0808 102.141 31.8887V29.3241C102.141 29.1064 102.128 28.9527 102.102 28.8631C102.077 28.7734 102.022 28.7126 101.939 28.6806C101.817 28.6294 101.632 28.6038 101.382 28.6038C101.196 28.6038 101.033 28.6294 100.892 28.6806C100.809 28.7126 100.754 28.767 100.729 28.8439C100.703 28.9207 100.684 29.0808 100.671 29.3241C100.633 30.0797 100.575 30.7169 100.498 31.2355C100.421 31.7542 100.287 32.1928 100.095 32.5514C99.909 32.9036 99.6432 33.0797 99.2974 33.0797ZM107.258 30.2558C107.994 30.2558 108.555 30.3647 108.939 30.5824C109.323 30.7937 109.515 31.1363 109.515 31.6101C109.515 32.0391 109.349 32.3817 109.016 32.6379C108.683 32.8876 108.17 33.0125 107.479 33.0125C106.525 33.0125 105.734 33.0189 105.106 33.0317C105.106 32.8332 105.122 32.6891 105.154 32.5994C105.308 32.5866 105.426 32.561 105.51 32.5226C105.593 32.4842 105.651 32.4137 105.683 32.3113C105.721 32.2088 105.74 32.0552 105.74 31.8502V29.3241C105.74 29.1384 105.721 28.9976 105.683 28.9015C105.651 28.8055 105.593 28.7382 105.51 28.6998C105.433 28.6614 105.318 28.6358 105.164 28.623C105.132 28.5269 105.116 28.3828 105.116 28.1907C105.449 28.2036 105.849 28.21 106.317 28.21C106.707 28.21 107.082 28.2036 107.44 28.1907C107.44 28.3764 107.424 28.5205 107.392 28.623C107.111 28.6358 106.912 28.6998 106.797 28.8151C106.682 28.9303 106.624 29.1384 106.624 29.4394V30.2846C106.842 30.2654 107.053 30.2558 107.258 30.2558ZM107.315 32.5898C108.103 32.5898 108.497 32.3081 108.497 31.7446C108.497 31.3796 108.356 31.1171 108.074 30.957C107.799 30.7969 107.466 30.7169 107.075 30.7169C106.979 30.7169 106.829 30.7233 106.624 30.7361V31.8791C106.624 32.1672 106.672 32.3593 106.768 32.4554C106.864 32.545 107.047 32.5898 107.315 32.5898ZM115.623 31.9175C115.623 32.1928 115.661 32.3785 115.738 32.4746C115.821 32.5642 115.975 32.6154 116.199 32.6283C116.231 32.7051 116.247 32.8396 116.247 33.0317C115.812 33.0189 115.46 33.0125 115.191 33.0125C114.871 33.0125 114.512 33.0189 114.115 33.0317C114.115 32.8396 114.131 32.7051 114.163 32.6283C114.387 32.6154 114.538 32.5642 114.614 32.4746C114.698 32.3785 114.739 32.1928 114.739 31.9175V30.7457C113.51 30.7457 112.681 30.7617 112.252 30.7937V31.9175C112.252 32.1928 112.29 32.3785 112.367 32.4746C112.45 32.5642 112.607 32.6154 112.838 32.6283C112.863 32.7115 112.876 32.846 112.876 33.0317C112.44 33.0189 112.088 33.0125 111.819 33.0125C111.499 33.0125 111.141 33.0189 110.744 33.0317C110.744 32.8396 110.76 32.7051 110.792 32.6283C110.952 32.6154 111.07 32.5898 111.147 32.5514C111.23 32.513 111.288 32.4458 111.32 32.3497C111.352 32.2537 111.368 32.1096 111.368 31.9175V29.2953C111.368 29.1096 111.352 28.9688 111.32 28.8727C111.288 28.7767 111.23 28.7094 111.147 28.671C111.07 28.6326 110.952 28.607 110.792 28.5942C110.76 28.5045 110.744 28.37 110.744 28.1907C111.153 28.2036 111.512 28.21 111.819 28.21C112.076 28.21 112.428 28.2036 112.876 28.1907C112.876 28.3764 112.863 28.5109 112.838 28.5942C112.607 28.607 112.45 28.6582 112.367 28.7478C112.29 28.8375 112.252 29.02 112.252 29.2953V30.3231H114.739V29.2953C114.739 29.1096 114.72 28.9688 114.682 28.8727C114.65 28.7767 114.592 28.7094 114.509 28.671C114.432 28.6326 114.313 28.607 114.153 28.5942C114.128 28.4981 114.115 28.3636 114.115 28.1907C114.525 28.2036 114.88 28.21 115.181 28.21C115.444 28.21 115.799 28.2036 116.247 28.1907C116.247 28.3572 116.231 28.4917 116.199 28.5942C115.969 28.607 115.815 28.6582 115.738 28.7478C115.661 28.8375 115.623 29.02 115.623 29.2953V31.9175ZM119.807 30.1213C121.209 30.1213 121.91 30.5824 121.91 31.5045C121.91 31.9655 121.744 32.3337 121.411 32.609C121.084 32.878 120.575 33.0125 119.884 33.0125C119.007 33.0125 118.28 33.0189 117.703 33.0317C117.703 32.8332 117.719 32.6891 117.752 32.5994C117.905 32.5866 118.024 32.561 118.107 32.5226C118.19 32.4842 118.248 32.4137 118.28 32.3113C118.318 32.2088 118.337 32.0552 118.337 31.8502V29.3241C118.337 29.1384 118.318 28.9976 118.28 28.9015C118.248 28.8055 118.19 28.7382 118.107 28.6998C118.03 28.6614 117.915 28.6358 117.761 28.623C117.729 28.5269 117.713 28.3828 117.713 28.1907C118.046 28.2036 118.446 28.21 118.914 28.21C119.304 28.21 119.679 28.2036 120.037 28.1907C120.037 28.3764 120.021 28.5205 119.989 28.623C119.708 28.6358 119.509 28.6998 119.394 28.8151C119.279 28.9303 119.221 29.1384 119.221 29.4394V30.1502C119.407 30.131 119.602 30.1213 119.807 30.1213ZM123.563 31.8887C123.563 32.164 123.601 32.3497 123.678 32.4458C123.761 32.5354 123.918 32.5866 124.148 32.5994C124.174 32.6955 124.187 32.8396 124.187 33.0317C123.751 33.0189 123.399 33.0125 123.13 33.0125C122.81 33.0125 122.452 33.0189 122.055 33.0317C122.055 32.8332 122.071 32.6891 122.103 32.5994C122.263 32.5866 122.381 32.561 122.458 32.5226C122.541 32.4842 122.599 32.4169 122.631 32.3209C122.663 32.2248 122.679 32.0808 122.679 31.8887V29.3241C122.679 29.1384 122.663 28.9976 122.631 28.9015C122.599 28.8055 122.541 28.7382 122.458 28.6998C122.381 28.6614 122.263 28.6358 122.103 28.623C122.071 28.5269 122.055 28.3828 122.055 28.1907C122.464 28.2036 122.823 28.21 123.13 28.21C123.386 28.21 123.739 28.2036 124.187 28.1907C124.187 28.3892 124.174 28.5333 124.148 28.623C123.918 28.6358 123.761 28.687 123.678 28.7767C123.601 28.8663 123.563 29.0488 123.563 29.3241V31.8887ZM119.865 32.5898C120.21 32.5898 120.467 32.5034 120.633 32.3305C120.806 32.1576 120.892 31.9175 120.892 31.6101C120.892 31.2515 120.767 30.9922 120.518 30.8321C120.274 30.6656 120.012 30.5824 119.73 30.5824L119.221 30.6016V31.8791C119.221 32.084 119.237 32.2376 119.269 32.3401C119.308 32.4362 119.372 32.5034 119.461 32.5418C119.551 32.5738 119.685 32.5898 119.865 32.5898ZM130.528 31.9175C130.528 32.1928 130.566 32.3785 130.643 32.4746C130.726 32.5642 130.88 32.6154 131.104 32.6283C131.136 32.7051 131.152 32.8396 131.152 33.0317C130.716 33.0189 130.364 33.0125 130.095 33.0125C129.775 33.0125 129.417 33.0189 129.02 33.0317C129.02 32.8396 129.036 32.7051 129.068 32.6283C129.292 32.6154 129.442 32.5642 129.519 32.4746C129.602 32.3785 129.644 32.1928 129.644 31.9175V29.6027L127.175 32.196C127.195 32.3561 127.246 32.465 127.329 32.5226C127.412 32.5802 127.55 32.6154 127.742 32.6283C127.768 32.7115 127.781 32.846 127.781 33.0317C127.345 33.0189 126.993 33.0125 126.724 33.0125C126.404 33.0125 126.045 33.0189 125.648 33.0317C125.648 32.8396 125.664 32.7051 125.696 32.6283C125.856 32.6154 125.975 32.5898 126.052 32.5514C126.135 32.513 126.193 32.4458 126.225 32.3497C126.257 32.2537 126.273 32.1096 126.273 31.9175V29.2953C126.273 29.1096 126.257 28.9688 126.225 28.8727C126.193 28.7767 126.135 28.7094 126.052 28.671C125.975 28.6326 125.856 28.607 125.696 28.5942C125.664 28.5045 125.648 28.37 125.648 28.1907C126.058 28.2036 126.417 28.21 126.724 28.21C126.98 28.21 127.332 28.2036 127.781 28.1907C127.781 28.3764 127.768 28.5109 127.742 28.5942C127.512 28.607 127.355 28.6582 127.271 28.7478C127.195 28.8375 127.156 29.02 127.156 29.2953V31.6005L129.625 29.036C129.605 28.8759 129.554 28.767 129.471 28.7094C129.388 28.6454 129.25 28.607 129.058 28.5942C129.032 28.4981 129.02 28.3636 129.02 28.1907C129.429 28.2036 129.785 28.21 130.086 28.21C130.348 28.21 130.704 28.2036 131.152 28.1907C131.152 28.3572 131.136 28.4917 131.104 28.5942C130.873 28.607 130.72 28.6582 130.643 28.7478C130.566 28.8375 130.528 29.02 130.528 29.2953V31.9175ZM128.357 27.5472C127.832 27.5472 127.403 27.4223 127.07 27.1726C126.743 26.9229 126.58 26.5707 126.58 26.1161C126.849 26.0072 127.137 25.9624 127.444 25.9816C127.496 26.385 127.601 26.686 127.761 26.8845C127.928 27.0766 128.158 27.1726 128.453 27.1726C128.741 27.1726 128.959 27.0766 129.106 26.8845C129.253 26.686 129.34 26.385 129.365 25.9816C129.417 25.9752 129.497 25.972 129.605 25.972C129.855 25.972 130.063 26.004 130.23 26.068C130.23 26.5355 130.051 26.9005 129.692 27.163C129.34 27.4191 128.895 27.5472 128.357 27.5472ZM139.036 28.5173C138.972 28.7606 138.94 29.1256 138.94 29.6123C138.818 29.6699 138.658 29.6987 138.459 29.6987C138.44 29.2825 138.325 28.9912 138.114 28.8247C137.909 28.6518 137.611 28.5653 137.22 28.5653C136.58 28.5653 136.1 28.7414 135.78 29.0936C135.459 29.4458 135.299 29.878 135.299 30.3903C135.299 30.7937 135.383 31.1587 135.549 31.4853C135.722 31.8054 135.965 32.0584 136.279 32.2441C136.599 32.4297 136.977 32.5226 137.412 32.5226C137.675 32.5226 137.944 32.4938 138.219 32.4362C138.495 32.3721 138.748 32.2825 138.978 32.1672C139.017 32.1992 139.052 32.2473 139.084 32.3113C139.116 32.3689 139.135 32.4233 139.141 32.4746C138.783 32.6795 138.443 32.8332 138.123 32.9356C137.803 33.0317 137.441 33.0797 137.038 33.0797C136.513 33.0797 136.045 32.974 135.636 32.7627C135.226 32.5514 134.906 32.2569 134.675 31.8791C134.445 31.5013 134.329 31.069 134.329 30.5824C134.329 30.0637 134.461 29.6219 134.723 29.2569C134.986 28.8855 135.331 28.607 135.76 28.4213C136.196 28.2356 136.663 28.1427 137.163 28.1427C137.502 28.1427 137.819 28.1747 138.114 28.2388C138.408 28.2964 138.716 28.3892 139.036 28.5173ZM144.808 28.1907C144.789 28.5365 144.811 28.9527 144.875 29.4394C144.741 29.497 144.584 29.5258 144.405 29.5258C144.392 29.2185 144.309 28.9912 144.155 28.8439C144.008 28.6966 143.774 28.623 143.454 28.623H143.031V31.9175C143.031 32.116 143.047 32.2633 143.079 32.3593C143.118 32.449 143.182 32.513 143.271 32.5514C143.367 32.5898 143.511 32.6154 143.704 32.6283C143.736 32.7051 143.752 32.8396 143.752 33.0317C143.278 33.0189 142.89 33.0125 142.589 33.0125C142.218 33.0125 141.821 33.0189 141.398 33.0317C141.398 32.8396 141.414 32.7051 141.446 32.6283C141.638 32.6154 141.783 32.5898 141.879 32.5514C141.981 32.513 142.051 32.4458 142.09 32.3497C142.128 32.2537 142.148 32.1096 142.148 31.9175V28.623H141.754C141.498 28.623 141.299 28.6582 141.158 28.7286C141.024 28.7927 140.924 28.8855 140.86 29.0072C140.796 29.1288 140.742 29.3017 140.697 29.5258C140.492 29.5258 140.342 29.497 140.246 29.4394C140.342 29.004 140.39 28.5878 140.39 28.1907C140.723 28.2036 141.456 28.21 142.589 28.21C143.742 28.21 144.482 28.2036 144.808 28.1907ZM150.929 31.9175C150.929 32.1928 150.967 32.3785 151.044 32.4746C151.127 32.5642 151.281 32.6154 151.505 32.6283C151.537 32.7051 151.553 32.8396 151.553 33.0317C151.118 33.0189 150.766 33.0125 150.497 33.0125C150.176 33.0125 149.818 33.0189 149.421 33.0317C149.421 32.8396 149.437 32.7051 149.469 32.6283C149.693 32.6154 149.843 32.5642 149.92 32.4746C150.004 32.3785 150.045 32.1928 150.045 31.9175V29.6027L147.577 32.196C147.596 32.3561 147.647 32.465 147.73 32.5226C147.814 32.5802 147.951 32.6154 148.143 32.6283C148.169 32.7115 148.182 32.846 148.182 33.0317C147.746 33.0189 147.394 33.0125 147.125 33.0125C146.805 33.0125 146.446 33.0189 146.049 33.0317C146.049 32.8396 146.065 32.7051 146.097 32.6283C146.258 32.6154 146.376 32.5898 146.453 32.5514C146.536 32.513 146.594 32.4458 146.626 32.3497C146.658 32.2537 146.674 32.1096 146.674 31.9175V29.2953C146.674 29.1096 146.658 28.9688 146.626 28.8727C146.594 28.7767 146.536 28.7094 146.453 28.671C146.376 28.6326 146.258 28.607 146.097 28.5942C146.065 28.5045 146.049 28.37 146.049 28.1907C146.459 28.2036 146.818 28.21 147.125 28.21C147.381 28.21 147.734 28.2036 148.182 28.1907C148.182 28.3764 148.169 28.5109 148.143 28.5942C147.913 28.607 147.756 28.6582 147.673 28.7478C147.596 28.8375 147.557 29.02 147.557 29.2953V31.6005L150.026 29.036C150.007 28.8759 149.955 28.767 149.872 28.7094C149.789 28.6454 149.651 28.607 149.459 28.5942C149.434 28.4981 149.421 28.3636 149.421 28.1907C149.831 28.2036 150.186 28.21 150.487 28.21C150.749 28.21 151.105 28.2036 151.553 28.1907C151.553 28.3572 151.537 28.4917 151.505 28.5942C151.275 28.607 151.121 28.6582 151.044 28.7478C150.967 28.8375 150.929 29.02 150.929 29.2953V31.9175ZM153.297 33.0797C153.176 33.0797 153.061 33.0605 152.952 33.0221C152.843 32.99 152.766 32.9516 152.721 32.9068C152.696 32.8236 152.683 32.7147 152.683 32.5802C152.683 32.3689 152.708 32.1928 152.76 32.052C152.888 32.084 153.022 32.1 153.163 32.1C153.432 32.1 153.64 31.9975 153.787 31.7926C153.935 31.5813 154.04 31.2868 154.104 30.909C154.168 30.5248 154.22 29.9997 154.258 29.3337L154.268 29.1032C154.268 28.9752 154.252 28.8823 154.22 28.8247C154.188 28.7606 154.127 28.7158 154.037 28.6902C153.954 28.6582 153.816 28.6358 153.624 28.623C153.598 28.5205 153.586 28.3764 153.586 28.1907C154.072 28.2036 154.777 28.21 155.699 28.21C156.55 28.21 157.2 28.2036 157.649 28.1907C157.649 28.3892 157.636 28.5333 157.61 28.623C157.38 28.6358 157.223 28.687 157.139 28.7767C157.063 28.8663 157.024 29.0488 157.024 29.3241V31.8887C157.024 32.164 157.063 32.3497 157.139 32.4458C157.223 32.5354 157.38 32.5866 157.61 32.5994C157.636 32.6955 157.649 32.8396 157.649 33.0317C157.213 33.0189 156.864 33.0125 156.602 33.0125C156.275 33.0125 155.913 33.0189 155.516 33.0317C155.516 32.8332 155.532 32.6891 155.564 32.5994C155.724 32.5866 155.843 32.561 155.92 32.5226C156.003 32.4842 156.061 32.4169 156.093 32.3209C156.125 32.2248 156.141 32.0808 156.141 31.8887V29.3241C156.141 29.1064 156.128 28.9527 156.102 28.8631C156.077 28.7734 156.022 28.7126 155.939 28.6806C155.817 28.6294 155.631 28.6038 155.382 28.6038C155.196 28.6038 155.033 28.6294 154.892 28.6806C154.809 28.7126 154.754 28.767 154.729 28.8439C154.703 28.9207 154.684 29.0808 154.671 29.3241C154.633 30.0797 154.575 30.7169 154.498 31.2355C154.421 31.7542 154.287 32.1928 154.095 32.5514C153.909 32.9036 153.643 33.0797 153.297 33.0797ZM163.986 31.9175C163.986 32.1928 164.024 32.3785 164.101 32.4746C164.184 32.5642 164.338 32.6154 164.562 32.6283C164.594 32.7051 164.61 32.8396 164.61 33.0317C164.174 33.0189 163.822 33.0125 163.553 33.0125C163.233 33.0125 162.875 33.0189 162.478 33.0317C162.478 32.8396 162.494 32.7051 162.526 32.6283C162.75 32.6154 162.9 32.5642 162.977 32.4746C163.06 32.3785 163.102 32.1928 163.102 31.9175V29.6027L160.633 32.196C160.653 32.3561 160.704 32.465 160.787 32.5226C160.87 32.5802 161.008 32.6154 161.2 32.6283C161.226 32.7115 161.239 32.846 161.239 33.0317C160.803 33.0189 160.451 33.0125 160.182 33.0125C159.862 33.0125 159.503 33.0189 159.106 33.0317C159.106 32.8396 159.122 32.7051 159.154 32.6283C159.314 32.6154 159.433 32.5898 159.51 32.5514C159.593 32.513 159.651 32.4458 159.683 32.3497C159.715 32.2537 159.731 32.1096 159.731 31.9175V29.2953C159.731 29.1096 159.715 28.9688 159.683 28.8727C159.651 28.7767 159.593 28.7094 159.51 28.671C159.433 28.6326 159.314 28.607 159.154 28.5942C159.122 28.5045 159.106 28.37 159.106 28.1907C159.516 28.2036 159.875 28.21 160.182 28.21C160.438 28.21 160.79 28.2036 161.239 28.1907C161.239 28.3764 161.226 28.5109 161.2 28.5942C160.97 28.607 160.813 28.6582 160.729 28.7478C160.653 28.8375 160.614 29.02 160.614 29.2953V31.6005L163.083 29.036C163.064 28.8759 163.012 28.767 162.929 28.7094C162.846 28.6454 162.708 28.607 162.516 28.5942C162.49 28.4981 162.478 28.3636 162.478 28.1907C162.887 28.2036 163.243 28.21 163.544 28.21C163.806 28.21 164.162 28.2036 164.61 28.1907C164.61 28.3572 164.594 28.4917 164.562 28.5942C164.331 28.607 164.178 28.6582 164.101 28.7478C164.024 28.8375 163.986 29.02 163.986 29.2953V31.9175ZM170.571 28.5173C170.507 28.7606 170.475 29.1256 170.475 29.6123C170.353 29.6699 170.193 29.6987 169.995 29.6987C169.975 29.2825 169.86 28.9912 169.649 28.8247C169.444 28.6518 169.146 28.5653 168.755 28.5653C168.115 28.5653 167.635 28.7414 167.315 29.0936C166.995 29.4458 166.834 29.878 166.834 30.3903C166.834 30.7937 166.918 31.1587 167.084 31.4853C167.257 31.8054 167.5 32.0584 167.814 32.2441C168.134 32.4297 168.512 32.5226 168.948 32.5226C169.21 32.5226 169.479 32.4938 169.754 32.4362C170.03 32.3721 170.283 32.2825 170.513 32.1672C170.552 32.1992 170.587 32.2473 170.619 32.3113C170.651 32.3689 170.67 32.4233 170.676 32.4746C170.318 32.6795 169.979 32.8332 169.658 32.9356C169.338 33.0317 168.976 33.0797 168.573 33.0797C168.048 33.0797 167.58 32.974 167.171 32.7627C166.761 32.5514 166.441 32.2569 166.21 31.8791C165.98 31.5013 165.864 31.069 165.864 30.5824C165.864 30.0637 165.996 29.6219 166.258 29.2569C166.521 28.8855 166.867 28.607 167.296 28.4213C167.731 28.2356 168.198 28.1427 168.698 28.1427C169.037 28.1427 169.354 28.1747 169.649 28.2388C169.943 28.2964 170.251 28.3892 170.571 28.5173ZM176.343 28.1907C176.324 28.5365 176.346 28.9527 176.41 29.4394C176.276 29.497 176.119 29.5258 175.94 29.5258C175.927 29.2185 175.844 28.9912 175.69 28.8439C175.543 28.6966 175.309 28.623 174.989 28.623H174.566V31.9175C174.566 32.116 174.582 32.2633 174.614 32.3593C174.653 32.449 174.717 32.513 174.806 32.5514C174.902 32.5898 175.047 32.6154 175.239 32.6283C175.271 32.7051 175.287 32.8396 175.287 33.0317C174.813 33.0189 174.425 33.0125 174.124 33.0125C173.753 33.0125 173.356 33.0189 172.933 33.0317C172.933 32.8396 172.949 32.7051 172.981 32.6283C173.174 32.6154 173.318 32.5898 173.414 32.5514C173.516 32.513 173.587 32.4458 173.625 32.3497C173.663 32.2537 173.683 32.1096 173.683 31.9175V28.623H173.289C173.033 28.623 172.834 28.6582 172.693 28.7286C172.559 28.7927 172.46 28.8855 172.396 29.0072C172.332 29.1288 172.277 29.3017 172.232 29.5258C172.027 29.5258 171.877 29.497 171.781 29.4394C171.877 29.004 171.925 28.5878 171.925 28.1907C172.258 28.2036 172.991 28.21 174.124 28.21C175.277 28.21 176.017 28.2036 176.343 28.1907Z" fill="black"/>
<path fill-rule="evenodd" clip-rule="evenodd" d="M233 23H-2V24H233V23Z" fill="black"/>
</svg>
