<svg width="63" height="62" viewBox="0 0 63 62" fill="none" xmlns="http://www.w3.org/2000/svg">
<g clip-path="url(#clip0_245_118)">
<path fill-rule="evenodd" clip-rule="evenodd" d="M45.1555 37.1536C44.3857 36.7687 40.6114 34.9139 39.9087 34.6555C39.2061 34.3998 38.6946 34.2732 38.1805 35.043C37.669 35.8077 36.1991 37.5385 35.7522 38.05C35.3027 38.5641 34.8557 38.6261 34.0885 38.2438C33.3212 37.8563 30.8464 37.0477 27.9143 34.4334C25.6332 32.3977 24.091 29.8841 23.6441 29.1143C23.1972 28.347 23.595 27.9311 23.9799 27.5488C24.3261 27.2052 24.7472 26.6524 25.1321 26.2054C25.517 25.7559 25.6436 25.4356 25.8993 24.9215C26.1577 24.41 26.0285 23.9631 25.8347 23.5782C25.6436 23.1933 24.1091 19.4139 23.4684 17.8768C22.8458 16.381 22.2129 16.5851 21.7428 16.5593C21.2932 16.5386 20.7817 16.5334 20.2703 16.5334C19.7587 16.5334 18.9269 16.7246 18.2242 17.4944C17.519 18.2617 15.5376 20.1191 15.5376 23.8985C15.5376 27.6754 18.2862 31.3256 18.6712 31.8397C19.0561 32.3512 24.0833 40.1064 31.7842 43.4311C33.6183 44.2216 35.0469 44.6944 36.1603 45.0457C37.9997 45.6321 39.6737 45.5494 40.9963 45.3505C42.4688 45.1309 45.5378 43.4931 46.1785 41.7003C46.8166 39.9074 46.8166 38.3704 46.6254 38.05C46.4342 37.7297 45.9227 37.5385 45.1529 37.1536H45.1555ZM31.1487 56.278H31.1383C26.5644 56.2789 22.0744 55.0493 18.139 52.7182L17.209 52.1654L7.54217 54.7022L10.1229 45.2782L9.51583 44.312C6.95869 40.2416 5.60543 35.5307 5.61242 30.7237C5.61758 16.6445 17.0721 5.19002 31.159 5.19002C37.979 5.19002 44.3908 7.85086 49.2113 12.6765C51.589 15.0444 53.4735 17.8602 54.7559 20.961C56.0383 24.0619 56.693 27.3862 56.6823 30.7418C56.6772 44.8209 45.2227 56.278 31.1487 56.278ZM52.8797 9.01077C50.0333 6.14566 46.6467 3.87391 42.916 2.32717C39.1853 0.780437 35.1847 -0.0105303 31.1461 0.000105859C14.2149 0.000105859 0.430248 13.7822 0.425081 30.7211C0.417236 36.1119 1.83138 41.4094 4.52483 46.079L0.166748 62.0001L16.4521 57.7273C20.9571 60.1818 26.0055 61.4678 31.1357 61.4679H31.1487C48.0798 61.4679 61.8645 47.6859 61.8697 30.7444C61.8822 26.7073 61.0941 22.7079 59.5509 18.9774C58.0078 15.2469 55.7404 11.8593 52.8797 9.01077Z" fill="black"/>
</g>
<defs>
<clipPath id="clip0_245_118">
<rect width="62" height="62" fill="white" transform="translate(0.166748)"/>
</clipPath>
</defs>
</svg>
